Coordinates
version=1
nRows=65
nColumns=12
inDegrees=yes

Units are S.I. units (second, meters, Newtons, ...)
Angles are in degrees

endheader
time	SC_y	SC_z	SC_x	AC_y	AC_z	AC_x	GH_y	GH_z	GH_yy	EL_x	PS_y
       0.0              -15.93          18.08          58.58          32.65          6.151          2.979          103.2         -4.948          23.64          139.9          85.96
   0.03973              -15.93          18.08          58.58          32.65          6.149          2.979          103.2         -4.937          23.63          139.9          85.96
   0.07945              -15.94          18.08          58.57          32.65          6.146          2.979          103.2         -4.926          23.62          139.9          85.96
    0.1192              -15.94          18.08          58.57          32.65          6.144          2.979          103.2         -4.914          23.61          139.9          85.97
    0.1589              -15.94          18.08          58.57          32.66          6.141          2.979          103.1         -4.901           23.6          139.9          85.97
    0.1986              -15.95          18.08          58.57          32.66          6.138          2.979          103.1         -4.887          23.58          139.9          85.98
    0.2384              -15.96          18.08          58.56          32.66          6.135          2.979          103.0         -4.873          23.57          139.9          85.98
    0.2781              -15.96          18.08          58.56          32.66          6.132          2.979          103.0         -4.857          23.56          139.9          85.98
    0.3178              -15.97          18.08          58.56          32.67          6.128          2.979          103.0         -4.841          23.54          139.9          85.99
    0.3575              -15.97          18.08          58.56          32.67          6.124          2.979          102.9         -4.823          23.52          139.9           86.0
    0.3973              -15.98          18.08          58.55          32.67           6.12          2.979          102.9         -4.804          23.51          139.9           86.0
     0.437              -15.99          18.08          58.55          32.68          6.116          2.979          102.8         -4.783          23.49          139.9          86.01
    0.4767               -16.0          18.08          58.54          32.68          6.111          2.979          102.8         -4.761          23.47          139.9          86.02
    0.5165              -16.01          18.08          58.54          32.69          6.106          2.979          102.7         -4.737          23.44          139.9          86.02
    0.5562              -16.02          18.08          58.53          32.69            6.1          2.979          102.6         -4.711          23.42          139.9          86.03
    0.5959              -16.03          18.08          58.53           32.7          6.094          2.979          102.6         -4.683          23.39          139.9          86.04
    0.6356              -16.04          18.08          58.52           32.7          6.087          2.979          102.5         -4.652          23.36          139.9          86.05
    0.6754              -16.05          18.07          58.52          32.71           6.08          2.979          102.4         -4.619          23.33          139.9          86.06
    0.7151              -16.06          18.07          58.51          32.72          6.072          2.979          102.3         -4.582           23.3          139.9          86.07
    0.7548              -16.08          18.07           58.5          32.72          6.064          2.979          102.2         -4.543          23.26          139.9          86.09
    0.7945               -16.1          18.07           58.5          32.73          6.054          2.979          102.1         -4.499          23.22          139.9           86.1
    0.8343              -16.11          18.07          58.49          32.74          6.044           2.98          102.0         -4.451          23.18          139.9          86.11
     0.874              -16.13          18.07          58.48          32.75          6.033           2.98          101.8         -4.397          23.13          139.9          86.13
    0.9137              -16.15          18.07          58.47          32.76           6.02           2.98          101.7         -4.338          23.07          139.9          86.15
    0.9534              -16.18          18.07          58.45          32.78          6.006           2.98          101.5         -4.273          23.01          139.9          86.17
    0.9932              -16.21          18.07          58.44          32.79           5.99           2.98          101.3           -4.2          22.94          139.9          86.19
     1.033              -16.24          18.06          58.43          32.81          5.972           2.98          101.1         -4.118          22.86          139.9          86.22
     1.073              -16.27          18.06          58.41          32.82          5.953           2.98          100.9         -4.026          22.78          139.9          86.25
     1.112              -16.31          18.06          58.39          32.84           5.93           2.98          100.6         -3.922          22.68          139.9          86.28
     1.152              -16.35          18.06          58.37          32.87          5.905           2.98          100.3         -3.803          22.57          139.9          86.32
     1.192              -16.41          18.05          58.34          32.89          5.876           2.98          99.93         -3.668          22.44          139.8          86.36
     1.232              -16.46          18.05          58.32          32.92          5.842           2.98          99.53         -3.514           22.3          139.8          86.41
     1.271              -16.53          18.05          58.28          32.95          5.804           2.98          99.06         -3.335          22.13          139.8          86.47
     1.311              -16.61          18.04          58.24          32.99          5.759           2.98          98.53         -3.127          21.94          139.8          86.54
     1.351               -16.7          18.04           58.2          33.04          5.707           2.98           97.9         -2.884          21.71          139.8          86.61
      1.39              -16.81          18.03          58.15           33.1          5.645           2.98          97.15         -2.597          21.44          139.8          86.71
      1.43              -16.93          18.02          58.08          33.16          5.572           2.98          96.27         -2.257          21.12          139.7          86.81
      1.47              -17.08          18.02          58.01          33.24          5.484           2.98          95.21         -1.848          20.74          139.7          86.95
      1.51              -17.27          18.01          57.92          33.33          5.377           2.98          93.93         -1.355          20.28          139.7           87.1
     1.549              -17.49          17.99          57.81          33.45          5.247           2.98          92.37        -0.7513          19.71          139.6           87.3
     1.589              -17.77          17.98          57.67          33.59          5.087           2.98          90.44      -0.006708          19.01          139.6          87.53
     1.629              -18.12          17.96           57.5          33.77          4.887           2.98          88.04         0.9218          18.14          139.5          87.83
     1.669              -18.56          17.93          57.29          33.99          4.635          2.981          85.01          2.092          17.05          139.4           88.2
     1.708              -19.11           17.9          57.01          34.27          4.315          2.981          81.15          3.578          15.65          139.3          88.68
     1.748              -19.82          17.86          56.66          34.64          3.905          2.981          76.22          5.482          13.87          139.2          89.28
     1.788              -20.73          17.81          56.22           35.1          3.379          2.982           69.9          7.924          11.58          139.1          90.06
     1.827               -21.9          17.74          55.64           35.7          2.707          2.982          61.81          11.04          8.662          138.8          91.06
     1.867              -23.36          17.66          54.92          36.44          1.862          2.983          51.65          14.97          4.988          138.6          92.31
     1.907              -25.15          17.56          54.05          37.36         0.8329          2.984          39.27          19.75         0.5108          138.2          93.84
     1.947              -27.22          17.45          53.03          38.41        -0.3604          2.984          24.91          25.29         -4.679          137.9          95.61
     1.986              -29.46          17.32          51.93          39.56         -1.653          2.985          9.367          31.29          -10.3          137.5          97.52
     2.026               -31.7          17.19          50.83           40.7         -2.945          2.986         -6.176          37.29         -15.92          137.0          99.44
     2.066              -33.77          17.08          49.81          41.76         -4.138          2.987         -20.53          42.83         -21.11          136.7          101.2
     2.106              -35.55          16.98          48.94          42.67         -5.167          2.988         -32.92          47.61         -25.59          136.3          102.7
     2.145              -37.02          16.89          48.22          43.42         -6.012          2.989         -43.08          51.53         -29.26          136.1          104.0
     2.185              -38.18          16.83          47.64          44.01         -6.684          2.989         -51.16          54.65         -32.18          135.9          105.0
     2.225              -39.09          16.78           47.2          44.48          -7.21           2.99         -57.49          57.09         -34.47          135.7          105.8
     2.264               -39.8          16.74          46.85          44.84          -7.62           2.99         -62.42           59.0         -36.25          135.6          106.4
     2.304              -40.36           16.7          46.57          45.12          -7.94           2.99         -66.27          60.48         -37.64          135.5          106.8
     2.344               -40.8          16.68          46.36          45.35         -8.192           2.99          -69.3          61.65         -38.74          135.4          107.2
     2.384              -41.14          16.66          46.19          45.52         -8.392          2.991         -71.71          62.58         -39.61          135.3          107.5
     2.423              -41.42          16.65          46.05          45.66         -8.552          2.991         -73.64          63.33         -40.31          135.3          107.7
     2.463              -41.65          16.63          45.94          45.78         -8.682          2.991          -75.2          63.93         -40.87          135.2          107.9
     2.503              -41.83          16.62          45.85          45.87         -8.789          2.991         -76.48          64.42         -41.34          135.2          108.1
     2.543              -41.98          16.61          45.78          45.95         -8.877          2.991         -77.54          64.83         -41.72          135.2          108.2
